<?xml version="1.0" standalone="no"?>
<!DOCTYPE svg PUBLIC "-//W3C//DTD SVG 1.1//EN" "http://www.w3.org/Graphics/SVG/1.1/DTD/svg11.dtd" >
<svg xmlns="http://www.w3.org/2000/svg" xmlns:xlink="http://www.w3.org/1999/xlink" version="1.1">
<metadata></metadata>
<defs>
<font id="gotham_trmedium" horiz-adv-x="1024" >
<font-face units-per-em="2048" ascent="1638" descent="-410" />
<missing-glyph horiz-adv-x="614" />
<glyph horiz-adv-x="0" />
<glyph unicode="&#xd;" horiz-adv-x="614" />
<glyph unicode=" "  horiz-adv-x="614" />
<glyph unicode="&#x09;" horiz-adv-x="614" />
<glyph unicode="&#xa0;" horiz-adv-x="614" />
<glyph unicode="!" horiz-adv-x="618" d="M164 1362v72h291v-72l-76 -909h-137zM174 0v281h272v-281h-272z" />
<glyph unicode="&#x22;" horiz-adv-x="997" d="M123 821l47 613h281v-11l-199 -602h-129zM571 821l50 613h280v-11l-201 -602h-129z" />
<glyph unicode="#" horiz-adv-x="1433" d="M80 330v213h221l59 356h-204v213h241l56 322h219l-56 -322h336l54 322h219l-56 -322h183v-213h-219l-60 -356h205v-213h-242l-57 -330h-219l57 330h-336l-55 -330h-219l57 330h-184zM518 543h336l61 356h-335z" />
<glyph unicode="$" horiz-adv-x="1314" d="M100 207l131 186q85 -69 175 -115q88 -45 186 -61v401q-112 28 -195 66q-82 37 -136 87q-53 49 -81 117q-26 64 -26 152q0 83 30 152t88 121q59 52 137 82q85 32 175 39v118h178v-122q113 -15 206 -54q94 -39 179 -102l-115 -193q-135 101 -278 131v-389 q235 -60 339 -158q105 -99 105 -266q0 -83 -32 -153t-89 -121q-58 -52 -137 -83q-83 -33 -178 -40v-203h-178v205q-134 16 -257 68q-123 51 -227 135zM395 1055q0 -67 39 -110q40 -45 158 -79v361q-97 -7 -148 -57q-49 -48 -49 -115zM754 209q96 7 150 55q52 46 52 121 q0 35 -9 62q-9 28 -33 52t-62 43q-43 22 -98 38v-371z" />
<glyph unicode="%" horiz-adv-x="1738" d="M98 1081q0 74 25 143q24 65 70 116q47 51 107 80q63 30 138 30q74 0 137 -29q62 -29 106 -79q46 -52 69 -116q24 -66 24 -141q0 -76 -24 -142q-24 -67 -70 -117t-108 -80q-61 -29 -138 -29t-137 28q-62 29 -106 79q-43 49 -68 117q-25 69 -25 140zM244 0l1048 1434h203 l-1049 -1434h-202zM281 1085q0 -89 44 -150t113 -61q72 0 113 61t41 146q0 90 -44 151q-44 60 -114 60q-72 0 -112 -60q-41 -61 -41 -147zM965 348q0 76 24 142q24 67 70 117q47 51 107 80q63 30 139 30q74 0 137 -29q60 -28 105 -79q46 -52 69 -116q24 -66 24 -141 q0 -76 -24 -142q-24 -67 -70 -117q-47 -51 -107 -80q-61 -29 -139 -29q-77 0 -137 28t-105 79t-69 117t-24 140zM1147 352q0 -89 44 -150t114 -61q71 0 112 61t41 146q0 90 -44 151q-44 60 -114 60q-72 0 -112 -60q-41 -61 -41 -147z" />
<glyph unicode="&#x26;" horiz-adv-x="1425" d="M80 391q0 143 79 241q81 101 226 163q-61 79 -90 150q-29 72 -29 151q0 72 29 139q27 64 82 115q50 47 129 78q77 30 172 30q90 0 156 -26q69 -27 119 -74q51 -48 78 -111q28 -65 28 -137q0 -143 -86 -232q-88 -91 -230 -143l246 -250q42 64 80 131q40 71 74 146 l190 -100q-51 -100 -91 -169q-50 -86 -103 -159l225 -230l-186 -133l-191 195q-92 -86 -201 -136t-239 -50q-102 0 -186 28q-82 27 -147 83q-62 53 -98 130t-36 170zM334 399q0 -91 67 -151t172 -60q75 0 142 33q70 34 129 92l-320 326q-100 -43 -145 -106t-45 -134z M502 1085q0 -55 24 -102q25 -48 84 -113q109 40 168 94q58 53 58 132q0 76 -46 119q-48 45 -118 45q-77 0 -124 -49q-46 -47 -46 -126z" />
<glyph unicode="'" horiz-adv-x="550" d="M123 821l47 613h285v-11l-201 -602h-131z" />
<glyph unicode="(" horiz-adv-x="901" d="M129 588q0 295 143 508q145 216 424 368l109 -166q-115 -76 -190 -149q-81 -78 -134 -164q-54 -89 -79 -184q-25 -97 -25 -213q0 -231 104 -399q103 -167 324 -312l-109 -166q-278 152 -424 369q-143 213 -143 508z" />
<glyph unicode=")" horiz-adv-x="901" d="M98 -123q111 74 190 150q83 80 134 163q54 88 79 185t25 213q0 229 -105 397q-104 167 -323 313l109 166q279 -153 423 -369t144 -507t-144 -507q-145 -218 -423 -370z" />
<glyph unicode="*" horiz-adv-x="880" d="M119 1008l233 102l-233 102l74 125l204 -149l-28 250h143l-29 -250l205 149l74 -125l-234 -102l234 -102l-74 -125l-205 149l29 -250h-143l28 250l-204 -149z" />
<glyph unicode="+" horiz-adv-x="1310" d="M145 608v226h394v391h233v-391h393v-226h-393v-391h-233v391h-394z" />
<glyph unicode="," horiz-adv-x="550" d="M70 -193q189 37 174 193h-105v281h273v-238q0 -172 -80 -250q-79 -78 -236 -90z" />
<glyph unicode="-" horiz-adv-x="835" d="M115 506v244h606v-244h-606z" />
<glyph unicode="." horiz-adv-x="550" d="M139 0v281h273v-281h-273z" />
<glyph unicode="/" horiz-adv-x="1067" d="M-51 -262l925 1896h216l-926 -1896h-215z" />
<glyph unicode="0" horiz-adv-x="1482" d="M117 715q0 153 45 290q45 136 127 236q83 101 197 159q115 58 257 58t256 -57t197 -158t126 -235q44 -137 44 -289q0 -153 -45 -290q-45 -136 -127 -236q-82 -101 -198 -159q-116 -59 -257 -59q-140 0 -256 58q-114 57 -196 157t-126 236q-44 137 -44 289zM377 719 q0 -111 25 -202q25 -93 74 -164q47 -68 116 -110q67 -40 151 -40q86 0 151 40q69 42 114 109q46 68 72 163t26 200q0 104 -26 200t-73 164q-49 71 -116 111q-68 41 -152 41q-85 0 -150 -40q-69 -42 -114 -109q-49 -72 -73 -162q-25 -93 -25 -201z" />
<glyph unicode="1" horiz-adv-x="811" d="M53 1321l385 123h176v-1444h-249v1188l-259 -72z" />
<glyph unicode="2" horiz-adv-x="1255" d="M100 0v199l494 419q70 58 125 112q51 50 83 95q31 44 46 88q14 41 14 93q0 106 -66 164q-67 59 -165 59q-97 0 -173 -53q-72 -51 -159 -162l-178 139q46 65 104 128q51 55 116 94t137 59q71 20 171 20q104 0 195 -31q85 -29 149 -88q62 -57 96 -136q33 -76 33 -175 q0 -88 -22 -155q-22 -69 -69 -132q-48 -65 -117 -128q-74 -68 -164 -142l-295 -246h682v-221h-1037z" />
<glyph unicode="3" horiz-adv-x="1265" d="M88 227l176 164q78 -92 167 -140t210 -48q108 0 177 59q71 60 71 160q0 109 -88 166q-89 57 -242 57h-117l-41 158l387 411h-620v220h948v-189l-399 -409q80 -10 159 -38q74 -26 135 -76q59 -48 93 -120q35 -73 35 -172q0 -102 -37 -183q-39 -86 -103 -144 q-66 -60 -158 -94t-204 -34q-189 0 -323 71q-136 72 -226 181z" />
<glyph unicode="4" horiz-adv-x="1394" d="M74 502l796 942h215v-916h205v-206h-205v-322h-241v322h-723zM373 528h471v568z" />
<glyph unicode="5" horiz-adv-x="1273" d="M96 195l156 182q86 -79 177 -126q91 -46 192 -46q129 0 206 67q78 68 78 183q0 111 -81 175q-80 64 -216 64q-77 0 -143 -18q-65 -18 -121 -45l-151 100l40 703h857v-224h-639l-23 -336q52 18 103 30q48 11 124 11q105 0 196 -27t159 -84q69 -58 105 -141q38 -87 38 -200 q0 -110 -38 -201q-37 -89 -107 -153q-72 -65 -168 -99q-100 -35 -217 -35q-164 0 -295 61t-232 159z" />
<glyph unicode="6" horiz-adv-x="1343" d="M117 676q0 165 39 308q40 144 115 248q77 106 193 166t267 60q140 0 242 -42t196 -118l-135 -194q-75 59 -146 92q-70 33 -165 33q-80 0 -142 -34q-63 -35 -106 -95q-42 -60 -67 -145t-29 -181q24 23 61 53q32 26 75 46q44 20 92 32q54 13 114 13q103 0 195 -30t160 -88 q69 -58 108 -143q39 -84 39 -192t-41 -199q-40 -88 -113 -154t-169 -101q-98 -36 -210 -36q-132 0 -230 39q-97 39 -169 111q-42 42 -73 91q-30 48 -54 117q-23 69 -35 150q-12 84 -12 193zM387 453q0 -113 81 -187q80 -73 216 -73t211 74q76 75 76 188q0 111 -79 181 q-80 71 -214 71q-68 0 -121 -21q-57 -23 -91 -54q-37 -34 -58 -81t-21 -98z" />
<glyph unicode="7" horiz-adv-x="1247" d="M139 1212v222h1008v-191l-647 -1243h-283l643 1212h-721z" />
<glyph unicode="8" horiz-adv-x="1290" d="M98 391q0 132 68 217q68 84 190 135q-87 45 -149 124q-60 77 -60 198q0 81 38 154q36 69 104 123q66 52 156 82q92 30 200 30q107 0 199 -30t157 -82q68 -54 104 -123q38 -73 38 -154q0 -121 -60 -198q-62 -79 -149 -124q116 -52 187 -135t71 -211q0 -95 -41 -174 q-40 -77 -115 -132t-174 -83t-217 -28q-120 0 -217 29q-99 30 -174 83q-74 53 -115 130t-41 169zM344 408q0 -92 80 -155q79 -63 221 -63t221 63q80 63 80 155q0 51 -23 90q-24 41 -64 69q-42 30 -95 44q-59 16 -119 16t-119 -16q-53 -14 -95 -44q-38 -27 -63 -69 q-24 -40 -24 -90zM389 1042q0 -94 73 -155q72 -60 183 -60t183 60q73 61 73 153q0 86 -70 145q-68 58 -186 58t-186 -58q-70 -59 -70 -143z" />
<glyph unicode="9" horiz-adv-x="1343" d="M121 961q0 105 39 197q40 93 109 158q72 67 169 104q100 38 217 38q135 0 229 -38t169 -113q81 -80 127 -208q47 -129 47 -341q0 -174 -42 -318q-42 -143 -121 -246q-80 -104 -194 -161q-116 -58 -258 -58q-148 0 -258 49q-113 50 -200 123l137 193q83 -69 159 -102 t168 -33q80 0 143 33q62 33 106 93q46 63 69 143q25 85 29 181q-49 -62 -137 -108q-82 -43 -199 -43q-114 0 -208 32t-160 92q-65 59 -103 144q-37 83 -37 189zM373 973q0 -115 79 -187q78 -71 214 -71q70 0 121 20q57 22 93 57q38 36 57 82q19 45 19 101q0 57 -21 105 q-20 46 -61 84q-39 36 -94 57q-53 20 -123 20q-135 0 -210 -78q-74 -77 -74 -190z" />
<glyph unicode=":" horiz-adv-x="571" d="M150 0v281h272v-281h-272zM150 801v280h272v-280h-272z" />
<glyph unicode=";" horiz-adv-x="571" d="M80 -193q189 37 174 193h-104v281h272v-238q0 -172 -80 -250q-79 -78 -236 -90zM150 801v280h272v-280h-272z" />
<glyph unicode="&#x3c;" horiz-adv-x="1310" d="M143 610v221l977 453v-235l-731 -326l731 -328v-237z" />
<glyph unicode="=" horiz-adv-x="1310" d="M176 350v230h959v-230h-959zM176 862v230h959v-230h-959z" />
<glyph unicode="&#x3e;" horiz-adv-x="1310" d="M190 158v235l732 326l-732 328v237l977 -453v-221z" />
<glyph unicode="?" horiz-adv-x="1107" d="M49 1225q90 101 209 165q117 62 285 62q105 0 195 -29q88 -28 152 -83q62 -53 97 -132t35 -174q0 -98 -33 -170t-88 -121t-130 -79q-79 -32 -161 -46l-20 -165h-166l-41 331l10 11q197 8 288 67q91 60 91 164q0 89 -62 142q-64 55 -173 55q-99 0 -180 -42 q-80 -41 -154 -120zM365 0v281h274v-281h-274z" />
<glyph unicode="@" horiz-adv-x="2007" d="M109 561q0 183 69 347q69 163 191 285q121 121 284 193t353 72q189 0 351 -67q157 -65 283 -180q121 -110 190 -258q68 -145 68 -306q0 -132 -32 -225q-33 -96 -87 -159q-53 -62 -126 -94t-152 -32q-121 0 -194 43q-75 44 -109 101q-57 -58 -132 -101q-76 -43 -185 -43 q-77 0 -145 28q-65 27 -118 78q-50 48 -79 122q-29 73 -29 159q0 109 39 202q41 97 104 163q66 69 149 108q82 39 173 39q110 0 179 -45q70 -46 110 -106l24 123l199 -31l-90 -516q-1 -8 -7 -51q-4 -30 -4 -37q0 -65 42 -106q41 -40 118 -40q56 0 105 27q48 26 86 79 q37 52 58 131q22 83 22 183q0 141 -62 274q-61 131 -170 234t-257 164q-147 61 -322 61q-178 0 -325 -64q-148 -64 -258 -176q-109 -111 -171 -261q-62 -151 -62 -318q0 -168 62 -318q62 -148 172 -259q112 -112 263 -174q155 -64 335 -64q150 0 270 35t236 102l37 -61 q-120 -73 -251 -113q-134 -41 -292 -41q-196 0 -364 71q-166 70 -289 192q-123 121 -192 284q-68 160 -68 346zM719 537q0 -107 60 -164q61 -58 157 -58q54 0 106 26q51 26 91 70q37 41 62 102q24 59 24 126q0 98 -62 160q-61 61 -153 61q-56 0 -108 -24q-51 -23 -91 -68 t-63 -102q-23 -58 -23 -129z" />
<glyph unicode="A" horiz-adv-x="1617" d="M61 0l631 1444h234l630 -1444h-266l-145 346h-678l-148 -346h-258zM559 569h494l-248 574z" />
<glyph unicode="B" horiz-adv-x="1478" d="M184 0v1434h643q217 0 344 -99t127 -268q0 -69 -17 -117q-18 -52 -45 -89q-25 -35 -66 -66t-76 -50q64 -23 115 -52q53 -31 90 -70q38 -41 59 -98q20 -54 20 -130q0 -96 -38 -170q-38 -75 -107 -124t-168 -75q-101 -26 -217 -26h-664zM432 223h418q129 0 203 50 q73 49 73 149q0 92 -72 143t-223 51h-399v-393zM432 829h344q122 0 197 49q74 48 74 148q0 88 -65 136t-187 48h-363v-381z" />
<glyph unicode="C" horiz-adv-x="1511" d="M121 715q0 154 54 289q53 133 153 236q99 102 233 160t299 58q100 0 179 -16q84 -17 149 -46q67 -30 125 -71q57 -41 108 -90l-161 -186q-84 78 -183 129q-95 49 -219 49q-103 0 -189 -40q-90 -42 -151 -109q-64 -70 -98 -160q-35 -93 -35 -199t35 -200t98 -163 q61 -67 151 -109q86 -40 189 -40q130 0 225 50q94 49 187 136l162 -164q-49 -53 -116 -105q-55 -42 -130 -80q-63 -31 -153 -51q-83 -18 -183 -18q-155 0 -291 58q-132 56 -230 156q-97 98 -153 235q-55 134 -55 291z" />
<glyph unicode="D" horiz-adv-x="1601" d="M184 0v1434h535q164 0 308 -55q139 -53 242 -150q98 -93 156 -228q56 -132 56 -282q0 -151 -56 -284q-56 -134 -156 -228q-104 -98 -242 -152q-140 -55 -308 -55h-535zM436 229h283q113 0 205 36q91 36 156 101t101 153t36 196q0 107 -36 195t-101 155q-62 63 -156 102 q-90 37 -205 37h-283v-975z" />
<glyph unicode="E" horiz-adv-x="1372" d="M184 0v1434h1063v-226h-811v-372h719v-226h-719v-385h821v-225h-1073z" />
<glyph unicode="F" horiz-adv-x="1343" d="M184 0v1434h1067v-230h-815v-391h723v-229h-723v-584h-252z" />
<glyph unicode="G" horiz-adv-x="1605" d="M121 715q0 151 54 286t153 237q98 101 234 161q134 59 298 59q97 0 171 -13q75 -13 143 -38q62 -23 123 -60q56 -35 114 -83l-160 -191q-46 39 -84 64q-43 29 -90 48q-40 17 -103 30q-57 12 -124 12q-99 0 -183 -40t-148 -110q-60 -66 -98 -162q-36 -91 -36 -196 q0 -109 35 -205q34 -94 99 -163q62 -67 154 -107q88 -39 199 -39q106 0 192 29q91 31 155 79v269h-367v219h610v-602q-55 -47 -117 -86q-70 -44 -140 -72q-74 -30 -161 -48q-86 -18 -180 -18q-168 0 -305 57q-138 58 -234 155q-99 100 -151 235q-53 136 -53 293z" />
<glyph unicode="H" horiz-adv-x="1556" d="M184 0v1434h252v-596h684v596h252v-1434h-252v604h-684v-604h-252z" />
<glyph unicode="I" horiz-adv-x="649" d="M199 0v1434h252v-1434h-252z" />
<glyph unicode="J" horiz-adv-x="1144" d="M43 211l166 170q64 -80 130 -124q67 -44 159 -44q102 0 165 69q62 68 62 212v940h258v-947q0 -127 -36 -222q-37 -97 -99 -159q-64 -64 -152 -95q-87 -31 -194 -31q-166 0 -277 66q-109 65 -182 165z" />
<glyph unicode="K" horiz-adv-x="1484" d="M184 0v1434h252v-721l682 721h309l-596 -617l623 -817h-305l-490 645l-223 -229v-416h-252z" />
<glyph unicode="L" horiz-adv-x="1267" d="M184 0v1434h252v-1205h754v-229h-1006z" />
<glyph unicode="M" horiz-adv-x="1777" d="M184 0v1434h269l436 -678l436 678h268v-1434h-252v1028l-452 -676h-8l-449 672v-1024h-248z" />
<glyph unicode="N" horiz-adv-x="1617" d="M184 0v1434h234l768 -992v992h248v-1434h-211l-791 1020v-1020h-248z" />
<glyph unicode="O" horiz-adv-x="1740" d="M121 715q0 152 55 286q56 135 156 237q99 100 237 161q134 59 303 59t304 -58q136 -58 235 -159q98 -100 154 -235q55 -134 55 -287t-55 -287q-55 -133 -156 -236q-98 -99 -238 -161q-137 -60 -303 -60q-165 0 -303 59q-136 58 -235 159q-98 100 -154 235 q-55 134 -55 287zM385 719q0 -105 36 -198q37 -96 100 -163q65 -69 155 -110q91 -41 196 -41q109 0 196 40q93 43 153 108q63 69 99 162t36 198q0 104 -36 197q-37 96 -100 163q-67 71 -155 111q-91 41 -197 41q-108 0 -195 -40q-92 -42 -153 -109q-63 -69 -99 -162 t-36 -197z" />
<glyph unicode="P" horiz-adv-x="1368" d="M184 0v1434h566q125 0 226 -34q102 -35 172 -97q70 -63 108 -152q38 -90 38 -199q0 -122 -45 -213t-123 -153q-79 -62 -182 -93q-107 -32 -223 -32h-285v-461h-252zM436 688h293q143 0 226 71t83 187q0 130 -84 194q-83 64 -225 64h-293v-516z" />
<glyph unicode="Q" horiz-adv-x="1740" d="M121 715q0 152 55 286q56 135 156 237q99 100 237 161q134 59 303 59t304 -58q136 -58 235 -159q98 -100 154 -235q55 -134 55 -287q0 -122 -38 -236q-37 -111 -107 -207l163 -139l-161 -180l-172 154q-93 -64 -201 -100t-236 -36q-165 0 -303 59q-136 58 -235 159 q-98 100 -154 235q-55 134 -55 287zM385 719q0 -105 36 -198q37 -96 100 -163q65 -69 155 -110q91 -41 196 -41q72 0 134 18q61 18 112 51l-246 209l162 185l248 -226q37 56 55 126q19 73 19 145q0 104 -36 197q-37 96 -100 163q-67 71 -155 111q-91 41 -197 41 q-108 0 -195 -40q-92 -42 -153 -109q-63 -69 -99 -162t-36 -197z" />
<glyph unicode="R" horiz-adv-x="1480" d="M184 0v1434h639q122 0 223 -32q97 -31 167 -90q68 -58 106 -144q37 -84 37 -189q0 -89 -26 -161t-70 -125q-46 -55 -108 -92q-63 -37 -138 -58l387 -543h-297l-352 500h-316v-500h-252zM436 723h369q137 0 215 65q80 66 80 177q0 119 -78 179t-219 60h-367v-481z" />
<glyph unicode="S" horiz-adv-x="1310" d="M88 209l152 180q106 -90 211 -138q107 -48 241 -48q118 0 186 49t68 133q0 41 -13 70q-14 31 -49 57t-99 49q-66 23 -162 45q-121 29 -204 61q-94 37 -150 83q-62 51 -92 117q-32 70 -32 169q0 96 37 171q38 77 102 132t154 85t197 30q159 0 284 -46q126 -47 236 -134 l-135 -191q-100 73 -195 110q-97 38 -194 38q-110 0 -172 -50t-62 -122q0 -44 15 -74q15 -31 52 -57q36 -26 104 -49q78 -27 169 -48q114 -29 200 -63q85 -34 144 -85q56 -49 87 -117q30 -66 30 -156q0 -102 -38 -183q-38 -79 -105 -135t-162 -84q-93 -28 -207 -28 q-168 0 -317 56q-154 58 -281 173z" />
<glyph unicode="T" horiz-adv-x="1327" d="M82 1200v234h1163v-234h-454v-1200h-254v1200h-455z" />
<glyph unicode="U" horiz-adv-x="1550" d="M162 608v826h252v-816q0 -200 96 -305q95 -104 266 -104q168 0 264 100q97 102 97 299v826h252v-813q0 -158 -44 -281q-43 -119 -124 -202q-78 -80 -194 -121q-113 -40 -255 -40q-141 0 -252 40q-112 41 -192 120t-123 198q-43 117 -43 273z" />
<glyph unicode="V" horiz-adv-x="1536" d="M61 1434h279l432 -1102l430 1102h273l-596 -1444h-222z" />
<glyph unicode="W" horiz-adv-x="2285" d="M74 1434h272l342 -1063l352 1067h213l353 -1067l342 1063h264l-500 -1444h-217l-352 1030l-352 -1030h-218z" />
<glyph unicode="X" horiz-adv-x="1492" d="M76 0l522 729l-502 705h297l357 -514l358 514h289l-500 -701l520 -733h-297l-377 543l-378 -543h-289z" />
<glyph unicode="Y" horiz-adv-x="1466" d="M37 1434h297l401 -635l406 635h289l-570 -863v-571h-254v565z" />
<glyph unicode="Z" horiz-adv-x="1437" d="M133 0v186l846 1024h-819v224h1147v-187l-846 -1024h846v-223h-1174z" />
<glyph unicode="[" horiz-adv-x="929" d="M180 -266v1700h629v-195h-393v-1311h393v-194h-629z" />
<glyph unicode="\" horiz-adv-x="1067" d="M-23 1634h216l925 -1896h-215z" />
<glyph unicode="]" horiz-adv-x="929" d="M121 -72h393v1311h-393v195h631v-1700h-631v194z" />
<glyph unicode="^" d="M115 1010l309 426h176l309 -426h-190l-209 270l-209 -270h-186z" />
<glyph unicode="_" horiz-adv-x="1228" d="M-4 -135h1237v-193h-1237v193z" />
<glyph unicode="`" d="M254 1454l225 100l217 -335h-192z" />
<glyph unicode="a" horiz-adv-x="1202" d="M82 311v4q0 88 33 154t91 109t139 64q85 22 175 22q92 0 167 -13q69 -12 132 -33v27q0 113 -68 172q-69 60 -198 60q-88 0 -164 -19q-64 -16 -145 -49l-68 199q93 42 184 65q98 25 228 25q241 0 358 -120t117 -337v-641h-246v133q-54 -64 -141 -110t-209 -46 q-76 0 -148 22q-68 21 -121 63q-52 42 -84 105q-32 64 -32 144zM328 324q0 -78 60 -119q61 -41 149 -41q62 0 113 16q53 17 91 46q41 31 61 72q21 42 21 93v68q-47 18 -111 30q-70 13 -137 13q-116 0 -182 -45q-65 -44 -65 -129v-4z" />
<glyph unicode="b" horiz-adv-x="1372" d="M156 0v1495h247v-594q62 88 148 145q88 58 219 58q97 0 186 -37q90 -38 161 -110t114 -177q43 -104 43 -239t-42 -240q-42 -104 -113 -177t-162 -110q-90 -37 -187 -37q-131 0 -221 58t-146 133v-168h-247zM397 541q0 -80 26 -144q25 -62 69 -109q45 -48 100 -71 q57 -24 121 -24q63 0 120 24q54 23 98 70q42 45 66 109q25 67 25 145q0 77 -25 144q-24 65 -66 110q-43 46 -98 69q-59 25 -120 25q-62 0 -121 -25q-57 -24 -100 -70t-69 -110t-26 -143z" />
<glyph unicode="c" horiz-adv-x="1169" d="M96 537q0 117 42 219t117 180t178 123t224 45q153 0 255 -51q101 -51 178 -135l-154 -166q-55 58 -122 97q-65 38 -159 38q-66 0 -125 -28q-56 -26 -98 -75q-40 -46 -64 -109t-24 -134q0 -75 24 -138q25 -67 66 -110q46 -49 103 -75q62 -28 131 -28q87 0 154 38 q65 37 126 98l150 -148q-76 -86 -183 -146q-102 -57 -260 -57q-120 0 -223 44q-100 43 -177 121q-75 77 -117 178q-42 102 -42 219z" />
<glyph unicode="d" horiz-adv-x="1372" d="M100 541q0 134 42 239q41 103 112 177q69 72 161 110q90 37 187 37q132 0 221 -57q87 -56 148 -134v582h248v-1495h-248v180q-58 -81 -149 -143q-88 -60 -220 -60q-97 0 -186 37q-91 38 -160 110q-70 73 -113 177t-43 240zM350 541q0 -78 25 -145q24 -65 67 -109 q45 -47 100 -70q57 -24 119 -24t119 24t101 71q42 45 68 109t26 144q0 79 -26 143q-27 66 -68 110q-42 45 -101 70t-119 25q-62 0 -119 -24q-58 -24 -100 -68t-67 -110q-25 -67 -25 -146z" />
<glyph unicode="e" horiz-adv-x="1236" d="M96 539q0 117 39 219t110 179t167 122t213 45q127 0 226 -47q96 -46 162 -127q63 -78 97 -187q33 -106 33 -223q0 -22 -1 -33q-2 -22 -3 -34h-795q22 -133 107 -204t204 -71q93 0 160 33q66 32 133 96l146 -129q-78 -92 -186 -147q-109 -56 -257 -56q-115 0 -218 41 q-99 39 -176 115q-74 73 -118 177q-43 102 -43 231zM342 616h555q-6 59 -27 112t-55 90q-36 39 -83 61t-109 22q-115 0 -190 -79t-91 -206z" />
<glyph unicode="f" horiz-adv-x="770" d="M74 868v207h137v78q0 179 86 267q86 87 246 87q62 0 112 -8q45 -7 88 -20v-209q-37 12 -70 19q-32 7 -75 7q-143 0 -143 -163v-60h286v-205h-282v-868h-248v868h-137z" />
<glyph unicode="g" horiz-adv-x="1372" d="M100 594q0 119 41 215q40 93 110 160q68 65 158 100t183 35q138 0 226 -54q92 -56 153 -130v161h248v-860q0 -286 -152 -420q-151 -133 -430 -133q-270 0 -483 129l92 187q91 -56 180 -84q98 -31 205 -31q165 0 254 84q88 84 88 248v84q-67 -88 -158 -144 q-89 -55 -223 -55q-97 0 -184 34q-90 35 -157 99q-70 67 -110 160q-41 96 -41 215zM350 596q0 -65 25 -123q23 -53 65 -95q41 -41 98 -62t119 -21q63 0 122 21q58 21 102 62q42 39 68 94t26 122q0 66 -26 124q-25 57 -68 95q-43 39 -102 60q-61 22 -122 22q-62 0 -120 -22 q-56 -21 -98 -60q-41 -38 -65 -94q-24 -55 -24 -123z" />
<glyph unicode="h" horiz-adv-x="1269" d="M156 0v1495h247v-582q24 35 59 73q30 33 74 61q42 27 92 42q49 15 113 15q184 0 285 -113q100 -112 100 -303v-688h-247v614q0 126 -61 196q-60 69 -171 69q-108 0 -176 -71t-68 -198v-610h-247z" />
<glyph unicode="i" horiz-adv-x="585" d="M160 1247v236h266v-236h-266zM170 0v1081h248v-1081h-248z" />
<glyph unicode="j" horiz-adv-x="585" d="M-16 -125q37 -6 69 -6q53 0 85 30t32 101v1081h248v-1095q0 -166 -81 -243q-82 -77 -235 -77q-35 0 -62 3q-39 4 -56 7v199zM160 1247v236h266v-236h-266z" />
<glyph unicode="k" horiz-adv-x="1191" d="M156 0v1495h247v-893l449 479h301l-430 -440l444 -641h-286l-326 467l-152 -158v-309h-247z" />
<glyph unicode="l" horiz-adv-x="585" d="M170 0v1495h248v-1495h-248z" />
<glyph unicode="m" horiz-adv-x="1945" d="M156 0v1081h247v-163q18 25 58 69q31 34 70 60q40 26 91 42q50 15 111 15q118 0 198 -52q79 -52 124 -139q68 88 154 139q88 52 212 52q179 0 279 -108q100 -107 100 -306v-690h-248v614q0 130 -57 197q-57 68 -162 68q-103 0 -167 -69q-64 -68 -64 -200v-610h-248v616 q0 128 -57 195q-57 68 -162 68t-168 -72q-64 -73 -64 -199v-608h-247z" />
<glyph unicode="n" horiz-adv-x="1269" d="M156 0v1081h247v-168q24 35 59 73q30 33 74 61q42 27 92 42q49 15 113 15q184 0 285 -113q100 -112 100 -303v-688h-247v614q0 126 -61 196q-60 69 -171 69q-108 0 -176 -71t-68 -198v-610h-247z" />
<glyph unicode="o" horiz-adv-x="1345" d="M96 537q0 115 44 220q43 102 121 180q77 77 182 122t231 45q124 0 230 -44q104 -43 182 -121q76 -76 120 -179q43 -101 43 -219q0 -116 -44 -219t-121 -180t-183 -122q-107 -45 -231 -45q-123 0 -229 44q-104 43 -182 121q-77 77 -120 178t-43 219zM344 541 q0 -70 25 -137q24 -64 68 -111q45 -48 105 -75q62 -28 132 -28q74 0 136 28q57 26 103 75q44 47 66 109t22 135q0 72 -24 135q-23 60 -69 111q-45 49 -104 76q-62 28 -134 28t-134 -28q-58 -26 -104 -75q-42 -45 -65 -109t-23 -134z" />
<glyph unicode="p" horiz-adv-x="1372" d="M156 -328v1409h247v-180q62 88 148 145q88 58 219 58q97 0 186 -37q90 -38 161 -110t114 -177q43 -104 43 -239t-42 -240q-42 -104 -113 -177t-162 -110q-90 -37 -187 -37q-131 0 -221 58t-146 133v-496h-247zM397 541q0 -80 26 -144q25 -62 69 -109q45 -48 100 -71 q57 -24 121 -24q63 0 120 24q54 23 98 70q42 45 66 109q25 67 25 145q0 77 -25 144q-24 65 -66 110q-43 46 -98 69q-59 25 -120 25q-62 0 -121 -25q-57 -24 -100 -70t-69 -110t-26 -143z" />
<glyph unicode="q" horiz-adv-x="1372" d="M100 541q0 134 42 239q41 103 112 177q69 72 161 110q90 37 187 37q132 0 221 -57q87 -56 148 -134v168h248v-1409h-248v508q-58 -81 -149 -143q-88 -60 -220 -60q-97 0 -186 37q-91 38 -160 110q-70 73 -113 177t-43 240zM350 541q0 -78 25 -145q24 -65 67 -109 q45 -47 100 -70q57 -24 119 -24t119 24t101 71q42 45 68 109t26 144q0 79 -26 143q-27 66 -68 110q-42 45 -101 70t-119 25q-62 0 -119 -24q-58 -24 -100 -68t-67 -110q-25 -67 -25 -146z" />
<glyph unicode="r" horiz-adv-x="845" d="M156 0v1081h247v-243q50 122 146 196q88 68 216 68h21v-262h-14q-81 0 -149 -27q-67 -27 -117 -80q-48 -51 -76 -134q-27 -81 -27 -187v-412h-247z" />
<glyph unicode="s" d="M68 141l110 168q85 -64 179 -99q90 -34 175 -34q80 0 124 32t44 85v4q0 31 -19 53q-20 23 -53 39q-31 15 -78 31q-17 6 -50 16t-41 13q-70 19 -120 38q-61 23 -109 59t-78 89q-31 54 -31 131v4q0 76 30 137q31 64 81 105q51 42 123 65t151 23q102 0 207 -33 q104 -33 190 -90l-98 -176q-83 50 -158 75q-79 27 -147 27q-70 0 -112 -31q-40 -30 -40 -77v-4q0 -30 21 -51q23 -23 54 -39q29 -15 78 -32q29 -10 91 -30q46 -14 119 -43q58 -23 107 -60q50 -37 79 -87q31 -53 31 -125v-5q0 -84 -31 -149q-29 -62 -85 -105t-128 -64 q-74 -21 -158 -21q-117 0 -236 40q-118 40 -222 121z" />
<glyph unicode="t" horiz-adv-x="839" d="M70 868v213h137v297h248v-297h290v-213h-290v-530q0 -73 34 -104t99 -31q80 0 153 37v-203q-42 -24 -100 -41q-49 -14 -123 -14q-70 0 -125 16q-59 17 -99 53q-43 38 -65 97t-22 151v569h-137z" />
<glyph unicode="u" horiz-adv-x="1269" d="M143 393v688h248v-614q0 -126 61 -196q59 -68 171 -68q109 0 176 70t67 198v610h248v-1081h-248v168q-50 -75 -133 -134q-79 -57 -205 -57q-183 0 -284 113t-101 303z" />
<glyph unicode="v" horiz-adv-x="1218" d="M53 1081h266l291 -794l293 794h260l-442 -1089h-223z" />
<glyph unicode="w" horiz-adv-x="1763" d="M66 1081h253l218 -741l239 745h211l242 -745l221 741h248l-355 -1089h-221l-241 739l-244 -739h-221z" />
<glyph unicode="x" horiz-adv-x="1187" d="M61 0l398 549l-383 532h270l250 -356l250 356h264l-383 -526l399 -555h-270l-266 379l-264 -379h-265z" />
<glyph unicode="y" horiz-adv-x="1220" d="M53 1081h264l308 -802l280 802h258l-430 -1112q-34 -86 -67 -141q-34 -57 -78 -93q-43 -35 -94 -52q-53 -17 -117 -17q-78 0 -138 18q-62 19 -118 48l84 184q35 -18 70 -30q33 -11 75 -11q54 0 88 27q37 29 66 98z" />
<glyph unicode="z" horiz-adv-x="1146" d="M106 0v170l625 709h-602v202h918v-170l-625 -708h625v-203h-941z" />
<glyph unicode="{" horiz-adv-x="997" d="M106 494v188h54q129 0 180 52t51 173q0 19 -1 33t-1 42t-1 41t-1 32q0 80 21 143q22 67 72 115q53 52 143 89q92 38 229 62l43 -164q-91 -24 -147 -51t-84 -58q-29 -32 -38 -74q-10 -47 -10 -97q0 -17 2 -75q0 -9 1.5 -36.5t1.5 -40.5q0 -120 -56 -184q-56 -63 -157 -96 q103 -34 158 -98t55 -183q0 -13 -1.5 -40.5t-1.5 -36.5q-2 -58 -2 -74q0 -51 10 -98q9 -41 38 -73t84 -59q56 -27 147 -51l-43 -164q-133 23 -229 63q-89 37 -143 88q-50 47 -72 114q-21 65 -21 145q0 19 1 32t1 41t1 42t1 32q0 120 -51 173t-180 53h-54z" />
<glyph unicode="|" horiz-adv-x="677" d="M240 -262v1896h198v-1896h-198z" />
<glyph unicode="}" horiz-adv-x="997" d="M102 -125q94 25 148 51q55 27 84 59t38 73q9 42 9 98q0 16 -2 74t-2 77q0 123 55 185q55 63 158 96q-106 35 -159 97q-54 63 -54 183q0 19 2 77t2 75q0 55 -9 97t-38 74q-28 31 -84 58q-54 26 -148 51l43 164q138 -24 230 -62q88 -37 142 -89q51 -50 73 -115 q20 -60 20 -143q0 -19 -1 -32t-1 -41t-1 -42t-1 -33q0 -121 51 -173t181 -52h53v-188h-53q-130 0 -181 -53t-51 -173q0 -18 1 -32t1 -42t1 -41t1 -32q0 -84 -20 -145q-21 -65 -73 -114q-55 -52 -142 -88q-96 -40 -230 -63z" />
<glyph unicode="~" horiz-adv-x="1013" d="M121 512q33 119 85 188q50 66 144 66q45 0 84 -13q33 -11 78 -29q63 -25 71 -28q34 -12 60 -12q45 0 68 25q22 24 45 77l137 -41q-34 -122 -85 -190q-50 -66 -144 -66q-40 0 -84 13q-40 12 -78 27q-11 4 -35 14l-36 15q-33 13 -60 13q-45 0 -68 -24q-21 -23 -45 -78z" />
<glyph unicode="&#xa2;" horiz-adv-x="1189" d="M106 725q0 117 42 219q42 103 117 179q76 77 177 122q102 45 224 45h18l31 156h180l-37 -182q77 -22 135 -65q57 -42 107 -95l-150 -160q-36 34 -68 58q-34 26 -75 42l-129 -661q8 -2 20 -2q80 5 143 41q65 38 117 90l144 -141q-80 -92 -183 -149q-103 -56 -251 -58 q-15 0 -25 2l-33 -178h-180l41 207q-82 29 -147 80q-68 53 -116 122q-47 68 -75 153q-27 82 -27 175zM348 729q0 -104 47 -187q46 -82 127 -126l127 659h-4q-65 -4 -120 -32q-53 -27 -93 -74q-37 -45 -61 -109q-23 -63 -23 -131z" />
<glyph unicode="&#xa3;" horiz-adv-x="1318" d="M129 0v160l162 49v360h-162v213h162v189q0 223 123 353t348 130q89 0 153 -17q68 -18 122 -48q53 -29 98 -73q37 -36 79 -91l-192 -154q-56 72 -114 111t-144 39q-105 0 -162 -69t-57 -187v-183h510v-213h-510v-350h665v-219h-1081z" />
<glyph unicode="&#xa5;" horiz-adv-x="1404" d="M39 1434h293l375 -600l374 600h285l-475 -711h328v-182h-396v-150h396v-182h-396v-209h-241v209h-396v182h396v150h-396v182h326z" />
<glyph unicode="&#xa8;" d="M182 1219v241h252v-241h-252zM590 1219v241h252v-241h-252z" />
<glyph unicode="&#xa9;" horiz-adv-x="1699" d="M109 715q0 151 57 286q57 134 158 237q100 101 236 161q134 59 292 59q157 0 291 -58q135 -58 234 -159q101 -103 157 -235q57 -135 57 -287t-57 -287q-56 -132 -158 -236q-100 -101 -236 -161t-292 -60q-155 0 -291 59q-135 58 -234 159q-101 103 -157 235 q-57 135 -57 287zM186 715q0 -135 51 -260q48 -119 139 -211q89 -91 210 -143q120 -52 262 -52q140 0 263 53q121 52 211 144q89 91 140 212q51 122 51 261q0 136 -50 259q-49 121 -139 212q-88 89 -210 142q-120 52 -262 52q-140 0 -263 -53q-122 -53 -211 -143 q-89 -91 -140 -213q-52 -125 -52 -260zM465 725q0 83 30 156q30 74 82 129q53 56 124 87t161 31q114 0 180 -33q70 -35 125 -87l-96 -111q-47 43 -96 67q-50 25 -113 25q-56 0 -97 -20q-44 -21 -77 -57q-31 -34 -50 -83q-17 -44 -17 -102q0 -53 18 -101q18 -47 50 -84 q31 -35 76 -57q41 -20 97 -20q71 0 118 25q48 25 95 71l99 -96q-60 -65 -134 -103q-69 -36 -182 -36q-85 0 -157 30q-70 29 -124 85q-51 52 -82 127q-30 72 -30 157z" />
<glyph unicode="&#xab;" horiz-adv-x="1241" d="M90 532v17l340 450l188 -96l-270 -360l270 -363l-188 -96zM606 532v17l338 450l189 -96l-271 -360l271 -363l-189 -96z" />
<glyph unicode="&#xad;" horiz-adv-x="835" d="M115 506v244h606v-244h-606z" />
<glyph unicode="&#xae;" horiz-adv-x="1699" d="M109 715q0 151 57 286q57 134 158 237q100 101 236 161q134 59 292 59q157 0 291 -58q135 -58 234 -159q101 -103 157 -235q57 -135 57 -287t-57 -287q-56 -132 -158 -236q-100 -101 -236 -161t-292 -60q-155 0 -291 59q-135 58 -234 159q-101 103 -157 235 q-57 135 -57 287zM186 715q0 -135 51 -260q48 -119 139 -211q89 -91 210 -143q120 -52 262 -52q140 0 263 53q121 52 211 144q89 91 140 212q51 122 51 261q0 136 -50 259q-49 121 -139 212q-88 89 -210 142q-120 52 -262 52q-140 0 -263 -53q-122 -53 -211 -143 q-89 -91 -140 -213q-52 -125 -52 -260zM551 350v776h346q136 0 217 -65q82 -66 82 -182q0 -96 -50 -155q-49 -58 -130 -81l209 -293h-176l-189 268h-162v-268h-147zM698 748h193q74 0 113 32q40 33 40 90q0 61 -40 92t-113 31h-193v-245z" />
<glyph unicode="&#xb4;" d="M328 1219l217 335l225 -100l-250 -235h-192z" />
<glyph unicode="&#xb8;" d="M268 -248l185 268h186l-154 -358z" />
<glyph unicode="&#xbb;" horiz-adv-x="1241" d="M109 178l270 361l-270 362l188 98l338 -450v-17l-338 -448zM623 178l270 361l-270 362l188 98l340 -450v-17l-340 -448z" />
<glyph unicode="&#xc2;" horiz-adv-x="1617" d="M61 0l631 1444h234l630 -1444h-266l-145 346h-678l-148 -346h-258zM457 1550l237 299h230l237 -299h-196l-158 138l-158 -138h-192zM559 569h494l-248 574z" />
<glyph unicode="&#xc7;" horiz-adv-x="1511" d="M121 715q0 154 54 289q53 133 153 236q99 102 233 160t299 58q100 0 179 -16q84 -17 149 -46q67 -30 125 -71q57 -41 108 -90l-161 -186q-84 78 -183 129q-95 49 -219 49q-103 0 -189 -40q-90 -42 -151 -109q-64 -70 -98 -160q-35 -93 -35 -199t35 -200t98 -163 q61 -67 151 -109q86 -40 189 -40q130 0 225 50q94 49 187 136l162 -164q-50 -52 -109 -99q-57 -45 -120 -77q-64 -33 -140 -52q-77 -19 -168 -24l-135 -315l-215 90l162 238q-128 24 -237 89q-105 63 -185 161q-77 95 -121 217q-43 120 -43 258z" />
<glyph unicode="&#xce;" horiz-adv-x="649" d="M-27 1552l238 299h229l238 -299h-197l-157 138l-158 -138h-193zM199 0v1434h252v-1434h-252z" />
<glyph unicode="&#xd6;" horiz-adv-x="1740" d="M121 715q0 152 55 286q56 135 156 237q99 100 237 161q134 59 303 59t304 -58q136 -58 235 -159q98 -100 154 -235q55 -134 55 -287t-55 -287q-55 -133 -156 -236q-98 -99 -238 -161q-137 -60 -303 -60q-165 0 -303 59q-136 58 -235 159q-98 100 -154 235 q-55 134 -55 287zM385 719q0 -105 36 -198q37 -96 100 -163q65 -69 155 -110q91 -41 196 -41q109 0 196 40q93 43 153 108q63 69 99 162t36 198q0 104 -36 197q-37 96 -100 163q-67 71 -155 111q-91 41 -197 41q-108 0 -195 -40q-92 -42 -153 -109q-63 -69 -99 -162 t-36 -197zM541 1552v242h252v-242h-252zM948 1552v242h252v-242h-252z" />
<glyph unicode="&#xdb;" horiz-adv-x="1550" d="M162 608v826h252v-816q0 -200 96 -305q95 -104 266 -104q168 0 264 100q97 102 97 299v826h252v-813q0 -158 -44 -281q-43 -119 -124 -202q-78 -80 -194 -121q-113 -40 -255 -40q-141 0 -252 40q-112 41 -192 120t-123 198q-43 117 -43 273zM424 1550l238 299h229 l237 -299h-196l-158 138l-158 -138h-192z" />
<glyph unicode="&#xdc;" horiz-adv-x="1550" d="M162 608v826h252v-816q0 -200 96 -305q95 -104 266 -104q168 0 264 100q97 102 97 299v826h252v-813q0 -158 -44 -281q-43 -119 -124 -202q-78 -80 -194 -121q-113 -40 -255 -40q-141 0 -252 40q-112 41 -192 120t-123 198q-43 117 -43 273zM446 1550v242h252v-242h-252z M854 1550v242h252v-242h-252z" />
<glyph unicode="&#xe2;" horiz-adv-x="1202" d="M82 311v4q0 88 33 154t91 109t139 64q85 22 175 22q92 0 167 -13q69 -12 132 -33v27q0 113 -68 172q-69 60 -198 60q-88 0 -164 -19q-64 -16 -145 -49l-68 199q93 42 184 65q98 25 228 25q241 0 358 -120t117 -337v-641h-246v133q-54 -64 -141 -110t-209 -46 q-76 0 -148 22q-68 21 -121 63q-52 42 -84 105q-32 64 -32 144zM248 1219l237 299h230l237 -299h-196l-158 137l-158 -137h-192zM328 324q0 -78 60 -119q61 -41 149 -41q62 0 113 16q53 17 91 46q41 31 61 72q21 42 21 93v68q-47 18 -111 30q-70 13 -137 13q-116 0 -182 -45 q-65 -44 -65 -129v-4z" />
<glyph unicode="&#xe7;" horiz-adv-x="1169" d="M96 537q0 117 42 219t117 180t178 123t224 45q153 0 255 -51q101 -51 178 -135l-154 -166q-55 58 -122 97q-65 38 -159 38q-66 0 -125 -28q-56 -26 -98 -75q-40 -46 -64 -109t-24 -134q0 -75 24 -138q25 -67 66 -110q46 -49 103 -75q62 -28 131 -28q87 0 154 38 q65 37 126 98l150 -148q-74 -80 -168 -137q-93 -57 -232 -64l-133 -315l-217 90l164 242q-92 23 -169 74q-79 53 -131 122q-56 75 -85 160q-31 91 -31 187z" />
<glyph unicode="&#xee;" horiz-adv-x="585" d="M-59 1219l237 299h230l237 -299h-196l-158 137l-158 -137h-192zM170 0v1081h248v-1081h-248z" />
<glyph unicode="&#xf6;" horiz-adv-x="1345" d="M96 537q0 115 44 220q43 102 121 180q77 77 182 122t231 45q124 0 230 -44q104 -43 182 -121q76 -76 120 -179q43 -101 43 -219q0 -116 -44 -219t-121 -180t-183 -122q-107 -45 -231 -45q-123 0 -229 44q-104 43 -182 121q-77 77 -120 178t-43 219zM342 1219v241h252 v-241h-252zM344 541q0 -70 25 -137q24 -64 68 -111q45 -48 105 -75q62 -28 132 -28q74 0 136 28q57 26 103 75q44 47 66 109t22 135q0 72 -24 135q-23 60 -69 111q-45 49 -104 76q-62 28 -134 28t-134 -28q-58 -26 -104 -75q-42 -45 -65 -109t-23 -134zM750 1219v241h251 v-241h-251z" />
<glyph unicode="&#xfb;" horiz-adv-x="1269" d="M143 393v688h248v-614q0 -126 61 -196q59 -68 171 -68q109 0 176 70t67 198v610h248v-1081h-248v168q-50 -75 -133 -134q-79 -57 -205 -57q-183 0 -284 113t-101 303zM283 1219l237 299h230l237 -299h-196l-158 137l-158 -137h-192z" />
<glyph unicode="&#xfc;" horiz-adv-x="1269" d="M143 393v688h248v-614q0 -126 61 -196q59 -68 171 -68q109 0 176 70t67 198v610h248v-1081h-248v168q-50 -75 -133 -134q-79 -57 -205 -57q-183 0 -284 113t-101 303zM305 1219v241h252v-241h-252zM713 1219v241h252v-241h-252z" />
<glyph unicode="&#x11e;" horiz-adv-x="1605" d="M121 715q0 151 54 286t153 237q98 101 234 161q134 59 298 59q97 0 171 -13q75 -13 143 -38q62 -23 123 -60q56 -35 114 -83l-160 -191q-46 39 -84 64q-43 29 -90 48q-40 17 -103 30q-57 12 -124 12q-99 0 -183 -40t-148 -110q-60 -66 -98 -162q-36 -91 -36 -196 q0 -109 35 -205q34 -94 99 -163q62 -67 154 -107q88 -39 199 -39q106 0 192 29q91 31 155 79v269h-367v219h610v-602q-55 -47 -117 -86q-70 -44 -140 -72q-74 -30 -161 -48q-86 -18 -180 -18q-168 0 -305 57q-138 58 -234 155q-99 100 -151 235q-53 136 -53 293zM453 1870 h170q18 -59 60 -94q43 -35 120 -35t120 35q42 35 60 94h170q-10 -145 -106 -224q-95 -79 -244 -79t-244 79q-96 79 -106 224z" />
<glyph unicode="&#x11f;" horiz-adv-x="1372" d="M100 594q0 119 41 215q40 93 110 160q68 65 158 100t183 35q138 0 226 -54q92 -56 153 -130v161h248v-860q0 -286 -152 -420q-151 -133 -430 -133q-270 0 -483 129l92 187q91 -56 180 -84q98 -31 205 -31q165 0 254 84q88 84 88 248v84q-67 -88 -158 -144 q-89 -55 -223 -55q-97 0 -184 34q-90 35 -157 99q-70 67 -110 160q-41 96 -41 215zM336 1518h170q18 -61 60 -95q41 -34 120 -34t120 34q42 34 60 95h170q-11 -146 -106 -225t-244 -79t-244 79t-106 225zM350 596q0 -65 25 -123q23 -53 65 -95q41 -41 98 -62t119 -21 q63 0 122 21q58 21 102 62q42 39 68 94t26 122q0 66 -26 124q-25 57 -68 95q-43 39 -102 60q-61 22 -122 22q-62 0 -120 -22q-56 -21 -98 -60q-41 -38 -65 -94q-24 -55 -24 -123z" />
<glyph unicode="&#x130;" horiz-adv-x="649" d="M199 0v1434h252v-1434h-252zM199 1571v244h258v-244h-258z" />
<glyph unicode="&#x131;" horiz-adv-x="585" d="M170 0v1081h248v-1081h-248z" />
<glyph unicode="&#x15e;" horiz-adv-x="1310" d="M88 209l152 180q106 -90 211 -138q107 -48 241 -48q118 0 186 49t68 133q0 41 -13 70q-14 31 -49 57t-99 49q-66 23 -162 45q-121 29 -204 61q-94 37 -150 83q-62 51 -92 117q-32 70 -32 169q0 96 37 171q38 77 102 132t154 85t197 30q159 0 284 -46q126 -47 236 -134 l-135 -191q-100 73 -195 110q-97 38 -194 38q-110 0 -172 -50t-62 -122q0 -44 15 -74q15 -31 52 -57q36 -26 104 -49q78 -27 169 -48q114 -29 200 -63q85 -34 144 -85q56 -49 87 -117q30 -66 30 -156q0 -102 -38 -183q-38 -79 -105 -135t-162 -84q-93 -28 -207 -28 q-168 0 -317 56q-154 58 -281 173zM469 -248l184 268h187l-154 -358z" />
<glyph unicode="&#x15f;" d="M68 141l110 168q85 -64 179 -99q90 -34 175 -34q80 0 124 32t44 85v4q0 31 -19 53q-20 23 -53 39q-31 15 -78 31q-17 6 -50 16t-41 13q-70 19 -120 38q-61 23 -109 59t-78 89q-31 54 -31 131v4q0 76 30 137q31 64 81 105q51 42 123 65t151 23q102 0 207 -33 q104 -33 190 -90l-98 -176q-83 50 -158 75q-79 27 -147 27q-70 0 -112 -31q-40 -30 -40 -77v-4q0 -30 21 -51q23 -23 54 -39q29 -15 78 -32q29 -10 91 -30q46 -14 119 -43q58 -23 107 -60q50 -37 79 -87q31 -53 31 -125v-5q0 -84 -31 -149q-29 -62 -85 -105t-128 -64 q-74 -21 -158 -21q-117 0 -236 40q-118 40 -222 121zM326 -248l184 268h186l-153 -358z" />
<glyph unicode="&#x2c6;" d="M160 1219l237 299h230l237 -299h-196l-158 137l-158 -137h-192z" />
<glyph unicode="&#x2da;" d="M279 1440q0 47 19 86q20 41 51 71q35 33 74 50q42 18 89 18q44 0 88 -18q40 -16 75 -50q31 -30 51 -71q19 -39 19 -86q0 -49 -19 -88q-21 -43 -51 -72q-31 -30 -75 -48q-43 -18 -88 -18q-47 0 -89 18q-43 18 -74 48q-30 29 -51 72q-19 39 -19 88zM385 1440q0 -53 37 -90 t90 -37t90 37t37 90t-37 90t-90 37t-90 -37t-37 -90z" />
<glyph unicode="&#x2dc;" d="M125 1239q34 123 85 191q49 65 144 65q45 0 84 -13t79 -29q60 -24 71 -28q33 -12 61 -12q45 0 68 25q21 23 45 78l137 -43q-34 -121 -85 -189q-49 -65 -144 -65q-44 0 -84 12q-44 13 -79 27q-9 3 -34 13.5t-38 15.5q-33 13 -60 13q-45 0 -68 -24q-21 -23 -45 -78z" />
<glyph unicode="&#x2000;" horiz-adv-x="935" />
<glyph unicode="&#x2001;" horiz-adv-x="1870" />
<glyph unicode="&#x2002;" horiz-adv-x="935" />
<glyph unicode="&#x2003;" horiz-adv-x="1870" />
<glyph unicode="&#x2004;" horiz-adv-x="623" />
<glyph unicode="&#x2005;" horiz-adv-x="467" />
<glyph unicode="&#x2006;" horiz-adv-x="311" />
<glyph unicode="&#x2007;" horiz-adv-x="311" />
<glyph unicode="&#x2008;" horiz-adv-x="233" />
<glyph unicode="&#x2009;" horiz-adv-x="374" />
<glyph unicode="&#x200a;" horiz-adv-x="103" />
<glyph unicode="&#x2010;" horiz-adv-x="835" d="M115 506v244h606v-244h-606z" />
<glyph unicode="&#x2011;" horiz-adv-x="835" d="M115 506v244h606v-244h-606z" />
<glyph unicode="&#x2012;" horiz-adv-x="835" d="M115 506v244h606v-244h-606z" />
<glyph unicode="&#x2013;" horiz-adv-x="1081" d="M115 510v235h852v-235h-852z" />
<glyph unicode="&#x2014;" horiz-adv-x="1839" d="M115 510v235h1609v-235h-1609z" />
<glyph unicode="&#x2018;" horiz-adv-x="550" d="M129 864v240q0 172 80 250t235 90l27 -107q-189 -34 -174 -190h104v-283h-272z" />
<glyph unicode="&#x2019;" horiz-adv-x="550" d="M80 961q189 35 174 192h-104v281h272v-240q0 -172 -80 -250q-79 -78 -236 -90z" />
<glyph unicode="&#x201a;" horiz-adv-x="550" d="M70 -193q189 37 174 193h-105v281h273v-238q0 -172 -80 -250q-79 -78 -236 -90z" />
<glyph unicode="&#x201c;" horiz-adv-x="1026" d="M129 864v240q0 172 80 250t235 90l27 -107q-189 -34 -174 -190h104v-283h-272zM604 864v240q0 172 80 250q79 78 236 90l26 -107q-188 -34 -176 -190h107v-283h-273z" />
<glyph unicode="&#x201d;" horiz-adv-x="1026" d="M80 961q189 35 174 192h-104v281h272v-240q0 -172 -80 -250q-79 -78 -236 -90zM555 961q189 35 174 192h-104v281h272v-240q0 -172 -80 -250t-235 -90z" />
<glyph unicode="&#x201e;" horiz-adv-x="1026" d="M70 -193q189 37 174 193h-105v281h273v-238q0 -172 -80 -250q-79 -78 -236 -90zM545 -193q189 37 174 193h-105v281h273v-238q0 -172 -80 -250q-79 -78 -236 -90z" />
<glyph unicode="&#x2026;" horiz-adv-x="1622" d="M139 0v274h267v-274h-267zM678 0v274h266v-274h-266zM1217 0v274h266v-274h-266z" />
<glyph unicode="&#x202f;" horiz-adv-x="374" />
<glyph unicode="&#x2039;" horiz-adv-x="724" d="M90 532v17l340 450l188 -96l-270 -360l270 -363l-188 -96z" />
<glyph unicode="&#x203a;" horiz-adv-x="724" d="M109 178l270 361l-270 362l188 98l338 -450v-17l-338 -448z" />
<glyph unicode="&#x205f;" horiz-adv-x="467" />
<glyph unicode="&#x2122;" horiz-adv-x="1413" d="M53 1323v111h510v-111h-194v-520h-121v520h-195zM698 803v631h129l191 -299l190 299h125v-631h-116v448l-195 -303h-12l-195 303v-448h-117z" />
<glyph unicode="&#x25fc;" horiz-adv-x="1085" d="M0 0v1085h1085v-1085h-1085z" />
</font>
</defs>
</svg>
