<svg xmlns="http://www.w3.org/2000/svg" width="108" height="101" viewBox="0 0 108 101">
  <defs>
    <style>
      .cls-1 {
        fill: #b8112b;
        fill-rule: evenodd;
      }
    </style>
  </defs>
  <path id="iletisim" class="cls-1" d="M96.031,39.64c0-.046,0-0.093-0.008-0.139S96.01,39.4,96,39.35s-0.016-.095-0.027-0.141-0.021-.081-0.033-0.121-0.032-.1-0.051-0.146-0.034-.091-0.054-0.136-0.038-.077-0.058-0.116S95.73,38.6,95.7,38.562s-0.052-.084-0.082-0.125-0.057-.074-0.087-0.111c-0.016-.019-0.027-0.041-0.043-0.06s-0.035-.03-0.051-0.048c-0.035-.037-0.071-0.073-0.108-0.107-0.017-.016-0.03-0.035-0.048-0.051L82.767,27.211V18.344a2.2,2.2,0,0,0-2.212-2.191H70.011L55.47,3.547a2.227,2.227,0,0,0-2.913,0L38.015,16.153H27.471a2.2,2.2,0,0,0-2.212,2.191v8.867L12.744,38.06c-0.018.016-.031,0.035-0.048,0.051-0.037.035-.073,0.07-0.108,0.107-0.017.017-.036,0.03-0.052,0.048s-0.027.041-.043,0.06c-0.03.037-.06,0.073-0.087,0.111s-0.055.082-.082,0.125-0.052.085-.075,0.128-0.04.076-.058,0.116-0.037.09-.054,0.136-0.036.1-.051,0.146-0.023.08-.033,0.121-0.019.093-.027,0.141-0.016.1-.021,0.151S12,39.593,12,39.64c0,0.024-.007.046-0.007,0.07V93.945c0,0.043.01,0.084,0.013,0.127a2.243,2.243,0,0,0,.024.233c0.012,0.069.028,0.135,0.046,0.2s0.039,0.138.065,0.206a2.152,2.152,0,0,0,.09.2c0.03,0.061.062,0.12,0.1,0.179a2.21,2.21,0,0,0,.139.193c0.026,0.033.045,0.07,0.074,0.1s0.035,0.03.051,0.048a2.22,2.22,0,0,0,.173.16c0.051,0.044.1,0.089,0.156,0.128s0.123,0.077.187,0.114,0.121,0.071.184,0.1,0.133,0.051.2,0.074,0.135,0.047.205,0.063,0.135,0.024.2,0.033a2.177,2.177,0,0,0,.231.023c0.025,0,.048.007,0.072,0.007H93.826a2.23,2.23,0,0,0,.454-0.047c0.023,0,.045-0.015.069-0.021a2.2,2.2,0,0,0,.358-0.114c0.045-.019.086-0.047,0.129-0.069a2.269,2.269,0,0,0,.262-0.15c0.045-.032.086-0.071,0.129-0.106a2.186,2.186,0,0,0,.215-0.2c0.015-.016.034-0.027,0.049-0.044,0.029-.032.047-0.069,0.074-0.1a2.21,2.21,0,0,0,.139-0.193c0.036-.059.068-0.118,0.1-0.179a2.152,2.152,0,0,0,.09-0.2c0.026-.068.046-0.136,0.065-0.206s0.034-.133.046-0.2a2.243,2.243,0,0,0,.024-0.233c0-.043.013-0.083,0.013-0.127V39.71C96.038,39.686,96.032,39.664,96.031,39.64ZM82.767,33.034l7.7,6.675-7.7,6.675V33.034ZM54.013,8.108l9.28,8.045H44.733ZM29.683,20.535H78.343V50.22L72.5,55.286l-10.786,9.35h-15.4L29.683,50.219V20.535Zm-4.424,12.5v13.35l-7.7-6.675Zm-8.847,11.5,9.6,8.324h0L42.123,66.827,16.412,89.116V44.539Zm3.675,47.215L46.313,69.019h15.4L87.94,91.754H20.087Zm71.527-2.638L65.9,66.827l25.71-22.288V89.116ZM56.225,56.464a2.2,2.2,0,0,0-2.212-2.191,12.492,12.492,0,0,1-8.985-3.76A12.271,12.271,0,0,1,41.485,41.5a12.561,12.561,0,0,1,21.267-8.549A12.342,12.342,0,0,1,65.3,47.258,1.576,1.576,0,0,1,64,48.132a1.719,1.719,0,0,1-1.557-.7,1.652,1.652,0,0,1-.317-0.976V37.472A2.2,2.2,0,0,0,58.96,35.5a8.039,8.039,0,1,0-.789,13.239,6.032,6.032,0,0,0,.677,1.246,6.139,6.139,0,0,0,5.529,2.51,5.966,5.966,0,0,0,4.906-3.33,16.693,16.693,0,0,0-3.448-19.357,16.892,16.892,0,0,0-12.3-4.75A17.083,17.083,0,0,0,37.062,41.38a16.6,16.6,0,0,0,4.8,12.189,16.9,16.9,0,0,0,12.156,5.087A2.2,2.2,0,0,0,56.225,56.464ZM54.013,45.508A3.652,3.652,0,1,1,57.7,41.855,3.674,3.674,0,0,1,54.013,45.508Z"/>
</svg>
