<svg xmlns="http://www.w3.org/2000/svg" width="108" height="101" viewBox="0 0 108 101">
  <defs>
    <style>
      .cls-1 {
        fill: #b8112b;
        fill-rule: evenodd;
      }
    </style>
  </defs>
  <path id="is-hayati" class="cls-1" d="M95.572,19.513h-21.4v-3.9a8.674,8.674,0,0,0-8.725-8.6H43.269a8.674,8.674,0,0,0-8.725,8.6v3.9h-21.4a10.244,10.244,0,0,0-10.3,10.159V82.813a10.244,10.244,0,0,0,10.3,10.159H95.572a10.244,10.244,0,0,0,10.3-10.159V29.673A10.244,10.244,0,0,0,95.572,19.513ZM39.3,15.612a3.946,3.946,0,0,1,3.97-3.914H65.448a3.946,3.946,0,0,1,3.969,3.914v3.9H39.3v-3.9Zm61.821,67.2a5.516,5.516,0,0,1-5.548,5.471H13.144A5.516,5.516,0,0,1,7.6,82.813V64.79A10.337,10.337,0,0,0,13.144,66.4h24.57V70.31a2.361,2.361,0,0,0,2.378,2.344H68.625A2.361,2.361,0,0,0,71,70.31V66.4h24.57a10.336,10.336,0,0,0,5.548-1.612V82.813ZM42.47,67.965V60.15H66.247v7.815H42.47ZM101.12,56.243a5.516,5.516,0,0,1-5.548,5.47H71V57.806a2.361,2.361,0,0,0-2.378-2.344H40.092a2.361,2.361,0,0,0-2.378,2.344v3.907H13.144A5.516,5.516,0,0,1,7.6,56.243V29.673a5.516,5.516,0,0,1,5.548-5.47H95.572a5.516,5.516,0,0,1,5.548,5.47V56.243Z"/>
</svg>
