<svg xmlns="http://www.w3.org/2000/svg" width="108" height="101" viewBox="0 0 108 101">
  <defs>
    <style>
      .cls-1 {
        fill: #b8112b;
        fill-rule: evenodd;
      }
    </style>
  </defs>
  <path id="egitim" class="cls-1" d="M105.589,0H2.413A2.42,2.42,0,0,0,0,2.419V76.725a2.42,2.42,0,0,0,2.418,2.423H17.728V98.57a2.418,2.418,0,0,0,3.618,2.1L31.432,94.9l10.085,5.774a2.418,2.418,0,0,0,3.618-2.1V79.148h60.455a2.42,2.42,0,0,0,2.418-2.423V2.419A2.42,2.42,0,0,0,105.589,0ZM40.3,94.395l-7.667-4.389a2.414,2.414,0,0,0-2.4,0l-7.667,4.389v-17l7.091,7.689a2.415,2.415,0,0,0,3.552,0L40.3,77.392v17ZM45,61.772l2.694,8.688-8.856,2.007a2.42,2.42,0,0,0-1.242.719l-6.162,6.682-6.162-6.682a2.419,2.419,0,0,0-1.242-.719L15.172,70.46l2.694-8.688a2.43,2.43,0,0,0,0-1.437l-2.694-8.688,8.856-2.006a2.42,2.42,0,0,0,1.242-.719l6.162-6.681,6.162,6.682a2.42,2.42,0,0,0,1.242.719l8.856,2.006L45,60.335A2.43,2.43,0,0,0,45,61.772Zm4.842-.719L53.086,50.58A2.424,2.424,0,0,0,51.311,47.5L40.635,45.08l-7.428-8.054a2.491,2.491,0,0,0-3.552,0L22.228,45.08l-6.111,1.385V16.149h75.77V62.994H50.441ZM103.171,74.3H52.031a2.389,2.389,0,0,0,1.056-2.776l-1.143-3.686H94.3a2.42,2.42,0,0,0,2.418-2.423V13.726A2.42,2.42,0,0,0,94.3,11.3H13.7a2.42,2.42,0,0,0-2.418,2.423V47.591a2.4,2.4,0,0,0-1.5,2.989l1.5,4.849v9.988a2.385,2.385,0,0,0,.145.791L9.776,71.526A2.389,2.389,0,0,0,10.832,74.3h-6V4.842h98.34V74.3ZM31.432,51.361A9.692,9.692,0,1,0,41.1,61.053,9.693,9.693,0,0,0,31.432,51.361Zm0,14.538a4.846,4.846,0,1,1,4.836-4.846A4.847,4.847,0,0,1,31.432,65.9ZM73.347,24.226H34.656a2.423,2.423,0,0,0,0,4.846H73.347A2.423,2.423,0,0,0,73.347,24.226Zm0,10.111H43.981a2.423,2.423,0,0,0,0,4.846H73.347A2.423,2.423,0,0,0,73.347,34.337Zm0,9.333h-14.6a2.423,2.423,0,0,0,0,4.846h14.6A2.423,2.423,0,0,0,73.347,43.67Z"/>
</svg>
